<svg version="1.1" id="Layer_1" xmlns="http://www.w3.org/2000/svg" xmlns:xlink="http://www.w3.org/1999/xlink" x="0px" y="0px" width="100px" height="100px" viewBox="0 0 100 100" enable-background="new 0 0 100 100" xml:space="preserve"><g><path fill="#3C5996" d="M100,94.287c0,3.14-2.573,5.713-5.713,5.713H5.713C2.573,100,0,97.427,0,94.287V5.713C0,2.573,2.573,0,5.713,0h88.572C97.427,0,100,2.573,100,5.713V94.287z"/><path fill="#FFFFFF" d="M57.143,92.857V56.094h-9.72V42.857h9.72c0,0,0-5.424,0-11.305c0-8.884,5.743-17.043,18.973-17.043c5.359,0,9.322,0.514,9.322,0.514l-0.312,12.36c0,0-4.04-0.039-8.451-0.039c-4.77,0-5.535,2.199-5.535,5.849c0,2.885,0-6.15,0,9.665H85.5l-0.625,13.236H71.139v36.765L57.143,92.857L57.143,92.857z"/></g></svg>