<svg version="1.1" id="Layer_1" xmlns="http://www.w3.org/2000/svg" xmlns:xlink="http://www.w3.org/1999/xlink" x="0px" y="0px" width="100px" height="100px" viewBox="0 0 100 100" enable-background="new 0 0 100 100" xml:space="preserve"><g><g><g><defs><rect id="SVGID_1_" width="100" height="100"/></defs><clipPath id="SVGID_2_"><use xlink:href="#SVGID_1_"  overflow="visible"/></clipPath><path clip-path="url(#SVGID_2_)" fill="#D9402C" d="M90.729,0H9.205C4.122,0,0,2.63,0,9.21v85.057c0,5.087,4.121,5.732,9.205,5.732h81.526c5.082,0,9.203-0.646,9.203-5.732V9.211C99.935,2.63,95.813,0,90.729,0"/></g><g><defs><rect id="SVGID_3_" width="100" height="100"/></defs><clipPath id="SVGID_4_"><use xlink:href="#SVGID_3_"  overflow="visible"/></clipPath><polygon clip-path="url(#SVGID_4_)" fill="#FFFFFF" points="73.638,7.894 81.525,7.894 81.525,26.313 100,26.313 100,34.047 81.525,34.047 81.525,52.629 73.638,52.629 73.638,34.047 55.229,34.047 55.229,26.313 73.638,26.313 "/></g></g><g><g><defs><path id="SVGID_5_" d="M5.68,28.424c0-3.797,0.382-7.726,2.851-10.789c2.327-2.915,6.388-4.812,10.162-4.812c12.046,0,18.126,16.325,18.126,26.825c0,2.102-1.069,6.211-3.792,9.334c-2.388,2.726-6.109,3.646-9.735,3.646C10.807,52.629,5.68,38.188,5.68,28.424 M26.135,7.894C18.526,8.037,9.446,9.177,1.172,16.033C0.783,16.369,0.364,16.756,0,17.104v35.525c3.982,3.31,9.388,5.822,15.976,5.822c1.456,0,3.044-0.15,4.645-0.292c-0.725,1.749-1.449,3.21-1.449,5.689c0,4.516,2.318,7.282,4.353,9.912c-5.548,0.375-16.947-0.572-23.523,4.691v8.389c2.995-4.076,7.782-5.896,9.877-6.66c6.098-2.047,13.938-2.337,15.253-2.337c1.442,0,2.167,0,3.324,0.152c11.038,7.871,18.947,11.926,19.03,19.372c0.014,1.442-0.394,1.894-0.611,2.632h8.498c0.876-2.051,1.169-4.471,1.169-7.163c0-10.063-8.344-16.309-14.728-21.706l-5.232-4.072c-1.595-1.316-3.77-3.064-3.77-6.267c0-3.212,2.175-5.26,4.063-7.149c6.099-4.805,11.776-9.917,11.776-20.703c0-9.844-5.315-15.376-8.879-18.466h8.896l8.149-6.579H26.135V7.894z"/></defs><clipPath id="SVGID_6_"><use xlink:href="#SVGID_5_"  overflow="visible"/></clipPath><linearGradient id="SVGID_7_" gradientUnits="userSpaceOnUse" x1="-394.4312" y1="-263.1504" x2="-393.083" y2="-263.1504" gradientTransform="matrix(0 -68.3195 68.3195 0 18006.6836 -26847.2812)"><stop  offset="0" style="stop-color:#F5F6F7"/><stop  offset="0.0795" style="stop-color:#F6F7F8"/><stop  offset="1" style="stop-color:#FFFFFF"/></linearGradient><rect y="7.894" clip-path="url(#SVGID_6_)" fill="url(#SVGID_7_)" width="56.818" height="92.106"/></g></g></g></svg>