<svg version="1.1" id="Layer_1" xmlns="http://www.w3.org/2000/svg" xmlns:xlink="http://www.w3.org/1999/xlink" x="0px" y="0px" width="100px" height="100px" viewBox="0 0 100 100" enable-background="new 0 0 100 100" xml:space="preserve"><g><g><path fill="#0077B3" d="M100,92.857c0,3.944-3.198,7.143-7.143,7.143H7.143C3.198,100,0,96.802,0,92.857V7.143C0,3.198,3.198,0,7.143,0h85.715C96.802,0,100,3.198,100,7.143V92.857z"/><path id="LinkedIn_3_" fill="#F3F3F3" d="M85.9,57.763v26.542H70.514V59.537c0-6.225-2.232-10.466-7.799-10.466c-4.246,0-6.786,2.862-7.898,5.627c-0.401,0.991-0.508,2.37-0.508,3.757v25.852H38.911c0,0,0.209-41.957,0-46.302h15.396v6.563c-0.029,0.055-0.076,0.098-0.099,0.151h0.099v-0.151c2.052-3.147,5.695-7.645,13.877-7.645C78.309,36.924,85.9,43.539,85.9,57.763z M22.812,15.695c-5.265,0-8.714,3.45-8.714,7.992c0,4.445,3.347,8.011,8.508,8.011h0.104c5.362,0,8.705-3.566,8.705-8.011C31.311,19.145,28.072,15.695,22.812,15.695z M15.017,84.305h15.384v-46.3H15.017V84.305z"/></g></g></svg>