<svg version="1.1" id="Layer_1" xmlns="http://www.w3.org/2000/svg" xmlns:xlink="http://www.w3.org/1999/xlink" x="0px" y="0px" width="100px" height="100px" viewBox="0 0 100 100" enable-background="new 0 0 100 100" xml:space="preserve"><g><path fill="#666666" d="M100,94.287c0,3.14-2.573,5.713-5.713,5.713H5.713C2.573,100,0,97.427,0,94.287V5.713C0,2.573,2.573,0,5.713,0h88.572C97.427,0,100,2.573,100,5.713V94.287z"/><g><path fill="#FFFFFF" d="M50.001,10C27.911,10,10,27.909,10,50c0,16.378,9.849,30.45,23.943,36.636c-0.112-2.793-0.02-6.146,0.696-9.186c0.769-3.247,5.147-21.796,5.147-21.796s-1.278-2.553-1.278-6.328c0-5.928,3.436-10.354,7.715-10.354c3.638,0,5.396,2.733,5.396,6.005c0,3.658-2.333,9.128-3.533,14.195c-1.002,4.243,2.128,7.704,6.314,7.704c7.578,0,12.683-9.733,12.683-21.267c0-8.767-5.903-15.329-16.644-15.329c-12.134,0-19.693,9.049-19.693,19.156c0,3.485,1.027,5.942,2.637,7.845c0.74,0.875,0.843,1.227,0.575,2.23c-0.192,0.735-0.633,2.508-0.815,3.209c-0.267,1.014-1.087,1.375-2.003,1.002c-5.589-2.281-8.192-8.402-8.192-15.283c0-11.362,9.583-24.987,28.589-24.987c15.271,0,25.322,11.051,25.322,22.913c0,15.69-8.723,27.414-21.582,27.414c-4.319,0-8.381-2.335-9.772-4.985c0,0-2.322,9.217-2.814,10.995c-0.848,3.084-2.508,6.166-4.026,8.567C42.262,89.422,46.062,90,50.001,90C72.091,90,90,72.092,90,50C90,27.909,72.091,10,50.001,10z"/></g><path display="none" fill="#FFFFFF" d="M57.143,92.857V56.094h-9.72V42.857h9.72c0,0,0-5.424,0-11.305c0-8.884,5.744-17.043,18.975-17.043c5.357,0,9.32,0.514,9.32,0.514l-0.312,12.36c0,0-4.04-0.039-8.451-0.039c-4.771,0-5.534,2.199-5.534,5.849c0,2.885,0-6.15,0,9.665H85.5l-0.625,13.236H71.139v36.766L57.143,92.857L57.143,92.857z"/></g></svg>