<svg version="1.1" id="Layer_1" xmlns="http://www.w3.org/2000/svg" xmlns:xlink="http://www.w3.org/1999/xlink" x="0px" y="0px" width="100px" height="100px" viewBox="0 0 100 100" enable-background="new 0 0 100 100" xml:space="preserve"><g><path fill="#666666" d="M100,92.857c0,3.944-3.198,7.143-7.143,7.143H7.143C3.198,100,0,96.802,0,92.857V7.143C0,3.198,3.198,0,7.143,0h85.715C96.802,0,100,3.198,100,7.143V92.857z"/><path fill="#FFFFFF" d="M79.191,31.887c-2.148,0.953-4.453,1.602-6.885,1.888c2.475-1.49,4.381-3.834,5.273-6.627c-2.311,1.37-4.875,2.367-7.6,2.906c-2.188-2.322-5.301-3.776-8.75-3.776c-6.613,0-11.977,5.356-11.977,11.973c0,0.938,0.106,1.852,0.31,2.737c-9.961-0.502-18.786-5.279-24.698-12.527c-1.028,1.781-1.615,3.828-1.615,6.031c0,4.155,2.111,7.812,5.329,9.969c-1.967-0.068-3.809-0.603-5.421-1.505c-0.013,0.059-0.013,0.104-0.013,0.16c0,5.797,4.135,10.641,9.624,11.746c-1.014,0.266-2.067,0.414-3.159,0.414c-0.781,0-1.518-0.071-2.26-0.215c1.526,4.754,5.946,8.22,11.189,8.312c-4.09,3.219-9.261,5.138-14.871,5.138c-0.965,0-1.923-0.059-2.858-0.166c5.292,3.385,11.59,5.376,18.356,5.376c22.048,0,34.095-18.251,34.095-34.086c0-0.521-0.022-1.027-0.039-1.549C75.557,36.401,77.588,34.296,79.191,31.887z"/></g></svg>