<svg version="1.1" id="Layer_1" xmlns="http://www.w3.org/2000/svg" xmlns:xlink="http://www.w3.org/1999/xlink" x="0px" y="0px" width="100px" height="100px" viewBox="0 0 100 100" enable-background="new 0 0 100 100" xml:space="preserve"><path fill="#666666" d="M100,92.857c0,3.944-3.198,7.143-7.143,7.143H7.143C3.198,100,0,96.802,0,92.857V7.143C0,3.198,3.198,0,7.143,0h85.715C96.802,0,100,3.198,100,7.143V92.857z"/><g><path id="Triangle" fill="#666666" d="M42.716,58.537l18.136-9.396L42.716,39.68V58.537z"/><path id="The_Sharpness" opacity="0.12" fill="#38000A" enable-background="new    " d="M42.716,39.682L58.621,50.3l2.23-1.158L42.716,39.682z"/><g id="Lozenge"><g><path fill="#FFFFFF" d="M82.534,36.412c0,0-0.653-4.625-2.666-6.661c-2.554-2.675-5.415-2.686-6.726-2.842C63.75,26.23,49.661,26.23,49.661,26.23h-0.028c0,0-14.089,0-23.481,0.679c-1.312,0.156-4.171,0.169-6.725,2.842c-2.011,2.037-2.666,6.661-2.666,6.661s-0.672,5.432-0.672,10.864v5.089c0,5.436,0.672,10.865,0.672,10.865s0.654,4.622,2.666,6.661c2.554,2.672,5.906,2.587,7.4,2.868c5.37,0.514,22.82,0.674,22.82,0.674s14.104-0.021,23.497-0.699c1.311-0.158,4.172-0.172,6.726-2.842c2.012-2.039,2.666-6.661,2.666-6.661s0.671-5.433,0.671-10.863v-5.09C83.205,41.845,82.534,36.412,82.534,36.412z M42.717,58.537l-0.001-18.855l18.136,9.461L42.717,58.537z"/></g></g></g></svg>