<svg xmlns="http://www.w3.org/2000/svg" width="80.001" height="80.001" viewBox="-24 -24 80.001 80.001" enable-background="new -24 -24 80.001 80.001"><path d="M-24 49.452c0-1.352 1.109-2.454 2.481-2.454h75.041c1.369 0 2.479 1.103 2.479 2.454v4.099c0 1.35-1.11 2.45-2.479 2.45h-75.041c-1.369 0-2.481-1.103-2.481-2.45v-4.099zM42.77 3.489h-9.63v-24.833c0-1.458-1.205-2.656-2.694-2.656h-29.89c-1.478 0-2.695 1.199-2.695 2.656v24.833h-9.624c-1.794.027-3.239 1.48-3.239 3.224 0 .903.372 1.701.971 2.301l27.637 27.192c.524.532 1.223.782 1.896.793.68-.011 1.373-.261 1.882-.793l27.65-27.192c.596-.601.964-1.4.964-2.301 0-1.744-1.442-3.197-3.234-3.224h.006z"/></svg>