<?xml version="1.0" encoding="utf-8"?>
<!-- Generator: Adobe Illustrator 16.0.4, SVG Export Plug-In . SVG Version: 6.00 Build 0)  -->
<!DOCTYPE svg PUBLIC "-//W3C//DTD SVG 1.1//EN" "http://www.w3.org/Graphics/SVG/1.1/DTD/svg11.dtd">
<svg version="1.1" id="Layer_1" xmlns="http://www.w3.org/2000/svg" xmlns:xlink="http://www.w3.org/1999/xlink" x="0px" y="0px"
	 width="100px" height="100px" viewBox="0 0 100 100" enable-background="new 0 0 100 100" xml:space="preserve">
<g>
	<line fill="none" stroke="#449FDB" x1="-34" y1="-34" x2="-34" y2="-34"/>
</g>
<path d="M10,83.701c0-1.352,1.109-2.454,2.481-2.454h75.041c1.369,0,2.479,1.103,2.479,2.454V87.8c0,1.35-1.109,2.45-2.479,2.45
	H12.48C11.111,90.25,10,89.147,10,87.8V83.701z"/>
<path d="M77.269,37.236H67.64V12.405c0-1.458-1.205-2.656-2.694-2.656H35.059c-1.478,0-2.695,1.199-2.695,2.656v24.831H22.74
	c-1.793,0.027-3.238,1.48-3.238,3.224c0,0.903,0.372,1.701,0.97,2.301l27.636,27.19c0.524,0.531,1.222,0.781,1.896,0.793
	c0.68-0.012,1.374-0.262,1.882-0.793l27.647-27.19c0.596-0.601,0.965-1.4,0.965-2.301c0-1.744-1.442-3.197-3.234-3.224l0,0H77.269z"
	/>
</svg>
