<?xml version="1.0" encoding="utf-8"?>
<!-- Generator: Adobe Illustrator 16.0.4, SVG Export Plug-In . SVG Version: 6.00 Build 0)  -->
<!DOCTYPE svg PUBLIC "-//W3C//DTD SVG 1.1//EN" "http://www.w3.org/Graphics/SVG/1.1/DTD/svg11.dtd">
<svg version="1.1" id="Layer_1" xmlns="http://www.w3.org/2000/svg" xmlns:xlink="http://www.w3.org/1999/xlink" x="0px" y="0px"
	 width="126px" height="126px" viewBox="0 0 126 126" enable-background="new 0 0 126 126" xml:space="preserve">
<rect x="19.448" y="27.5" fill="#3399CC" width="84.372" height="5.56"/>
<g>
	<path fill="#3399CC" d="M59.938,42.143c0.612-0.612,1.246-1.183,1.903-1.717H19.448v5.559h37.359
		C57.709,44.629,58.743,43.337,59.938,42.143z"/>
	<path fill="#3399CC" d="M54.411,68.844H19.448v5.56h38.039C56.208,72.664,55.178,70.792,54.411,68.844z"/>
	<path fill="#3399CC" d="M53.216,54.63H19.448v5.565h33.23C52.643,58.331,52.836,56.466,53.216,54.63z"/>
</g>
<g>
	<path fill="#3399CC" d="M43.439,101.774c2.449,2.451,6.429,2.451,8.881,0L67.694,86.4c-3.562-2.289-6.59-5.32-8.883-8.883
		L43.439,92.891C40.986,95.346,40.986,99.323,43.439,101.774z"/>
	<path fill="#3399CC" d="M83.474,86.861c13.879,0,25.126-11.247,25.126-25.123c0-13.877-11.247-25.126-25.126-25.126
		c-13.872,0-25.123,11.25-25.123,25.126C58.351,75.614,69.602,86.861,83.474,86.861z M64.631,61.738
		c0-10.392,8.452-18.846,18.843-18.846c10.394,0,18.846,8.454,18.846,18.846c0,10.391-8.452,18.843-18.846,18.843
		C73.083,80.581,64.631,72.129,64.631,61.738z"/>
	<path fill="#3399CC" d="M83.474,47.082v4.187c5.774,0,10.471,4.696,10.471,10.47h4.188C98.132,53.657,91.558,47.082,83.474,47.082z
		"/>
</g>
</svg>
