<svg xmlns="http://www.w3.org/2000/svg" width="146" height="35" viewBox="66.925 0.336 146 35" enable-background="new 66.925 0.336 146 35"><g enable-background="new" fill="#333"><path d="M67.497 26.688c0-2.922.457-5.09 1.37-6.504.914-1.415 2.306-2.122 4.179-2.122 1.819 0 3.201.737 4.145 2.214.944 1.476 1.416 3.612 1.416 6.412 0 2.901-.457 5.067-1.37 6.5-.914 1.432-2.311 2.147-4.191 2.147-1.812 0-3.189-.733-4.133-2.199-.944-1.465-1.416-3.615-1.416-6.448zm1.951 0c0 2.434.286 4.207.859 5.317s1.486 1.666 2.739 1.666c1.268 0 2.187-.562 2.756-1.688s.854-2.892.854-5.295c0-2.405-.285-4.167-.854-5.284-.569-1.118-1.488-1.678-2.756-1.678-1.252 0-2.166.552-2.739 1.655s-.859 2.872-.859 5.307zM80.96 30.825c0-1.921 1.178-3.416 3.533-4.487-1.067-.597-1.833-1.242-2.298-1.935-.463-.692-.696-1.467-.696-2.324 0-1.216.452-2.186 1.356-2.91.904-.722 2.114-1.084 3.63-1.084 1.536 0 2.752.356 3.651 1.067.898.712 1.348 1.695 1.348 2.95 0 .826-.258 1.58-.773 2.261-.516.682-1.34 1.302-2.472 1.859 1.37.65 2.343 1.334 2.919 2.05.577.714.866 1.543.866 2.484 0 1.393-.487 2.504-1.462 3.333-.975.831-2.311 1.246-4.007 1.246-1.796 0-3.178-.393-4.145-1.177s-1.45-1.894-1.45-3.333zm1.905.046c0 .918.319 1.634.957 2.146.638.513 1.534.769 2.687.769 1.139 0 2.024-.268 2.659-.803.634-.535.951-1.271.951-2.204 0-.742-.298-1.402-.894-1.979-.597-.578-1.635-1.138-3.117-1.682-1.139.489-1.963 1.031-2.475 1.623-.511.594-.768 1.304-.768 2.13zm.54-8.711c0 .704.226 1.308.676 1.813.45.505 1.283 1.01 2.497 1.515 1.092-.459 1.865-.953 2.32-1.48.454-.528.682-1.144.682-1.848 0-.773-.277-1.387-.831-1.843-.554-.455-1.315-.683-2.286-.683-.955 0-1.703.229-2.245.688-.542.46-.813 1.073-.813 1.838zM94.377 26.688c0-2.922.457-5.09 1.37-6.504.914-1.415 2.307-2.122 4.18-2.122 1.819 0 3.201.737 4.145 2.214.943 1.476 1.416 3.612 1.416 6.412 0 2.901-.457 5.067-1.37 6.5-.914 1.432-2.311 2.147-4.191 2.147-1.812 0-3.189-.733-4.134-2.199-.943-1.465-1.416-3.615-1.416-6.448zm1.952 0c0 2.434.286 4.207.859 5.317.574 1.11 1.486 1.666 2.739 1.666 1.268 0 2.187-.562 2.755-1.688.569-1.126.854-2.892.854-5.295 0-2.405-.285-4.167-.854-5.284-.569-1.118-1.487-1.678-2.755-1.678-1.253 0-2.166.552-2.739 1.655s-.859 2.872-.859 5.307zM107.817 26.688c0-2.922.457-5.09 1.37-6.504.913-1.415 2.307-2.122 4.179-2.122 1.819 0 3.201.737 4.146 2.214.944 1.476 1.416 3.612 1.416 6.412 0 2.901-.457 5.067-1.37 6.5-.913 1.432-2.312 2.147-4.191 2.147-1.812 0-3.188-.733-4.133-2.199s-1.417-3.615-1.417-6.448zm1.952 0c0 2.434.286 4.207.859 5.317s1.486 1.666 2.738 1.666c1.269 0 2.187-.562 2.757-1.688.568-1.126.854-2.892.854-5.295 0-2.405-.285-4.167-.854-5.284-.57-1.118-1.488-1.678-2.757-1.678-1.252 0-2.165.552-2.738 1.655s-.859 2.872-.859 5.307zM127.72 34.417v-1.844c.535.343 1.2.612 1.997.808.796.193 1.579.291 2.353.291 1.347 0 2.394-.316 3.139-.949.747-.634 1.119-1.549 1.119-2.747 0-2.333-1.436-3.5-4.308-3.5-.728 0-1.7.11-2.918.332l-.988-.632.639-7.85h8.345v1.745h-6.718l-.426 5.05c.881-.161 1.757-.241 2.63-.241 1.769 0 3.16.436 4.174 1.306 1.015.87 1.521 2.062 1.521 3.573 0 1.74-.553 3.105-1.658 4.094-1.105.989-2.63 1.483-4.574 1.483-1.891 0-3.333-.307-4.327-.919zM141.159 34.417v-1.844c.535.343 1.201.612 1.997.808.796.193 1.58.291 2.354.291 1.347 0 2.394-.316 3.138-.949.747-.634 1.12-1.549 1.12-2.747 0-2.333-1.436-3.5-4.309-3.5-.727 0-1.699.11-2.917.332l-.988-.632.639-7.85h8.344v1.745h-6.717l-.426 5.05c.881-.161 1.757-.241 2.629-.241 1.769 0 3.161.436 4.175 1.306 1.015.87 1.521 2.062 1.521 3.573 0 1.74-.553 3.105-1.658 4.094-1.105.989-2.63 1.483-4.574 1.483-1.89 0-3.334-.307-4.328-.919zM154.6 34.417v-1.844c.535.343 1.201.612 1.997.808.796.193 1.58.291 2.353.291 1.348 0 2.394-.316 3.139-.949.747-.634 1.12-1.549 1.12-2.747 0-2.333-1.437-3.5-4.309-3.5-.728 0-1.7.11-2.917.332l-.988-.632.639-7.85h8.344v1.745h-6.718l-.426 5.05c.881-.161 1.758-.241 2.63-.241 1.769 0 3.16.436 4.175 1.306 1.014.87 1.521 2.062 1.521 3.573 0 1.74-.554 3.105-1.658 4.094-1.106.989-2.631 1.483-4.574 1.483-1.891 0-3.334-.307-4.328-.919zM173.09 31.262v-1.675l7.965-11.353h2.021v11.282h2.514v1.745h-2.514v3.845h-1.802v-3.845h-8.184zm1.928-1.745h6.256v-5.578c0-1.094.037-2.329.114-3.707h-.092c-.367.734-.712 1.343-1.033 1.825l-5.245 7.46zM186.53 31.262v-1.675l7.965-11.353h2.021v11.282h2.513v1.745h-2.513v3.845h-1.803v-3.845h-8.183zm1.928-1.745h6.255v-5.578c0-1.094.038-2.329.115-3.707h-.092c-.367.734-.712 1.343-1.033 1.825l-5.245 7.46zM199.97 31.262v-1.675l7.966-11.353h2.02v11.282h2.514v1.745h-2.514v3.845h-1.802v-3.845h-8.184zm1.928-1.745h6.255v-5.578c0-1.094.038-2.329.115-3.707h-.092c-.368.734-.712 1.343-1.033 1.825l-5.245 7.46z"/></g><g enable-background="new" fill="#666"><path d="M97.693 6.218c0-1.178.218-2.211.653-3.097.437-.887 1.07-1.569 1.902-2.049.832-.48 1.812-.719 2.938-.719 1.2 0 2.248.219 3.146.657l-.563 1.142c-.867-.407-1.732-.609-2.599-.609-1.257 0-2.25.418-2.977 1.254-.729.837-1.092 1.982-1.092 3.437 0 1.496.351 2.651 1.052 3.467.702.816 1.703 1.224 3.002 1.224.797 0 1.708-.143 2.73-.43v1.17c-.792.3-1.771.449-2.934.449-1.686 0-2.983-.511-3.894-1.535-.91-1.023-1.364-2.477-1.364-4.361zM106.825 11.958l4.523-11.488h1.118l4.5 11.488h-1.377l-1.425-3.647h-4.585l-1.409 3.647h-1.345zm3.224-4.837h3.701l-1.329-3.544c-.173-.449-.351-1-.532-1.652-.114.501-.279 1.052-.493 1.652l-1.347 3.544zM118.539 11.958v-11.441h1.332v10.251h5.047v1.189h-6.379zM126.858 11.958v-11.441h1.33v10.251h5.048v1.189h-6.378zM139.223 7.888v-7.371h1.33v7.477c0 .956.262 1.69.783 2.202s1.288.769 2.301.769c.965 0 1.708-.257 2.229-.772.521-.516.782-1.253.782-2.214v-7.462h1.332v7.403c0 1.304-.395 2.33-1.183 3.076s-1.871 1.118-3.248 1.118-2.442-.375-3.196-1.127c-.753-.751-1.13-1.784-1.13-3.099zM150.252 11.596v-1.276c.469.199.98.356 1.533.471.554.115 1.103.173 1.645.173.887 0 1.557-.169 2.006-.506.45-.337.676-.807.676-1.408 0-.396-.081-.722-.24-.976-.16-.253-.426-.487-.799-.701-.374-.214-.943-.457-1.705-.729-1.066-.382-1.826-.834-2.276-1.356-.451-.522-.678-1.204-.678-2.045 0-.882.331-1.585.99-2.107.662-.522 1.534-.783 2.621-.783 1.136 0 2.179.209 3.131.626l-.411 1.158c-.943-.396-1.859-.595-2.751-.595-.705 0-1.256.151-1.654.454-.396.304-.595.724-.595 1.262 0 .396.072.722.219.976.146.254.395.486.741.698.348.211.88.445 1.596.701 1.202.429 2.026.888 2.471 1.379.447.491.67 1.129.67 1.913 0 1.004-.365 1.785-1.093 2.347-.729.561-1.716.842-2.966.842-1.358 0-2.401-.172-3.131-.518zM162.535 1.706v-1.189h8.577v1.189h-3.624v10.251h-1.329v-10.251h-3.624zM171.919 6.213c0-1.865.458-3.311 1.377-4.337.918-1.027 2.223-1.54 3.913-1.54 1.643 0 2.926.523 3.851 1.567.922 1.045 1.384 2.487 1.384 4.326 0 1.829-.463 3.267-1.389 4.313-.926 1.048-2.214 1.571-3.862 1.571-1.686 0-2.985-.514-3.9-1.543-.917-1.029-1.374-2.481-1.374-4.357zm1.408.016c0 1.552.33 2.729.989 3.531.661.803 1.619 1.204 2.876 1.204 1.269 0 2.226-.4 2.872-1.2.647-.799.971-1.979.971-3.535 0-1.542-.322-2.71-.966-3.508-.646-.797-1.599-1.196-2.86-1.196-1.269 0-2.231.402-2.893 1.204-.659.802-.989 1.969-.989 3.5zM184.995 11.958v-11.441h3.506c1.777 0 3.161.493 4.146 1.479.987.987 1.479 2.364 1.479 4.132 0 1.89-.513 3.333-1.538 4.332-1.024.999-2.5 1.499-4.425 1.499h-3.168zm1.329-1.15h1.62c1.586 0 2.779-.39 3.576-1.171.799-.779 1.197-1.933 1.197-3.462 0-1.492-.374-2.617-1.122-3.374-.749-.756-1.861-1.134-3.338-1.134h-1.934v9.141zM194.784 11.958l4.523-11.488h1.119l4.499 11.488h-1.377l-1.424-3.647h-4.586l-1.409 3.647h-1.345zm3.225-4.837h3.701l-1.331-3.544c-.171-.449-.35-1-.532-1.652-.114.501-.278 1.052-.492 1.652l-1.346 3.544zM203.964.517h1.456l3.021 5.721 3.045-5.721h1.439l-3.819 7.004v4.437h-1.331v-4.375l-3.811-7.066z"/></g></svg>