<svg xmlns="http://www.w3.org/2000/svg" width="210" height="35" viewBox="0 0 210 35"><path d="M72.582 26.121c0-2.734.427-4.764 1.282-6.087.855-1.324 2.159-1.986 3.912-1.986 1.703 0 2.996.69 3.879 2.072.883 1.381 1.325 3.381 1.325 6.001 0 2.716-.428 4.743-1.282 6.084-.855 1.34-2.163 2.01-3.922 2.01-1.695 0-2.985-.687-3.869-2.059-.883-1.372-1.325-3.384-1.325-6.035zm1.826 0c0 2.278.268 3.938.804 4.977.537 1.04 1.391 1.56 2.563 1.56 1.187 0 2.046-.526 2.579-1.58s.799-2.706.799-4.956c0-2.251-.267-3.899-.799-4.945-.533-1.047-1.392-1.57-2.579-1.57-1.172 0-2.027.517-2.563 1.549-.536 1.031-.804 2.686-.804 4.965zm10.775 3.872c0-1.798 1.102-3.197 3.307-4.2-.999-.559-1.716-1.162-2.15-1.811-.434-.647-.651-1.373-.651-2.175 0-1.139.423-2.046 1.27-2.724.846-.676 1.979-1.015 3.398-1.015 1.437 0 2.576.333 3.417.999s1.261 1.586 1.261 2.761c0 .773-.242 1.479-.724 2.116-.483.638-1.254 1.218-2.313 1.74 1.282.608 2.192 1.248 2.732 1.918.54.669.81 1.444.81 2.325 0 1.304-.456 2.344-1.369 3.12-.913.777-2.163 1.166-3.75 1.166-1.681 0-2.974-.367-3.879-1.102-.907-.731-1.359-1.771-1.359-3.118zm1.783.043c0 .859.298 1.529.896 2.009s1.436.72 2.515.72c1.065 0 1.895-.251 2.488-.752s.89-1.188.89-2.062c0-.694-.279-1.312-.836-1.853-.558-.541-1.53-1.065-2.917-1.574-1.065.458-1.837.965-2.316 1.52-.48.555-.72 1.219-.72 1.992zm.505-8.153c0 .659.211 1.225.633 1.697.421.473 1.201.945 2.337 1.418 1.022-.43 1.746-.892 2.171-1.386s.638-1.07.638-1.729c0-.724-.259-1.298-.777-1.725-.519-.426-1.231-.639-2.139-.639-.894 0-1.594.215-2.102.645-.508.43-.761 1.003-.761 1.719zm10.269 4.238c0-2.734.427-4.764 1.282-6.087.855-1.324 2.159-1.986 3.912-1.986 1.703 0 2.996.69 3.879 2.072.884 1.381 1.325 3.381 1.325 6.001 0 2.716-.428 4.743-1.282 6.084-.854 1.34-2.163 2.01-3.922 2.01-1.695 0-2.985-.687-3.869-2.059-.883-1.372-1.325-3.384-1.325-6.035zm1.826 0c0 2.278.268 3.938.804 4.977.537 1.04 1.391 1.56 2.563 1.56 1.187 0 2.046-.526 2.58-1.58.532-1.054.799-2.706.799-4.956 0-2.251-.267-3.899-.799-4.945-.533-1.047-1.393-1.57-2.58-1.57-1.172 0-2.027.517-2.563 1.549-.536 1.031-.804 2.686-.804 4.965zm10.753 0c0-2.734.427-4.764 1.282-6.087.855-1.324 2.158-1.986 3.912-1.986 1.702 0 2.995.69 3.879 2.072.883 1.381 1.325 3.381 1.325 6.001 0 2.716-.428 4.743-1.282 6.084-.855 1.34-2.162 2.01-3.922 2.01-1.695 0-2.985-.687-3.869-2.059-.882-1.372-1.325-3.384-1.325-6.035zm1.827 0c0 2.278.269 3.938.804 4.977.537 1.04 1.392 1.56 2.564 1.56 1.187 0 2.046-.526 2.578-1.58.533-1.054.8-2.706.8-4.956 0-2.251-.267-3.899-.8-4.945-.532-1.047-1.392-1.57-2.578-1.57-1.173 0-2.027.517-2.564 1.549-.536 1.031-.804 2.686-.804 4.965zm16.8 7.233v-1.726c.501.321 1.124.573 1.869.756.745.182 1.479.272 2.202.272 1.261 0 2.24-.296 2.938-.889.699-.593 1.048-1.449 1.048-2.57 0-2.184-1.344-3.276-4.032-3.276-.681 0-1.591.104-2.73.311l-.925-.591.598-7.347h7.81v1.633h-6.287l-.398 4.727c.824-.15 1.645-.226 2.461-.226 1.655 0 2.958.407 3.907 1.222s1.424 1.93 1.424 3.345c0 1.629-.518 2.906-1.552 3.831-1.035.926-2.462 1.389-4.281 1.389-1.77 0-3.121-.287-4.052-.861zm12.579 0v-1.726c.501.321 1.124.573 1.869.756.745.182 1.479.272 2.202.272 1.261 0 2.24-.296 2.938-.889.699-.593 1.048-1.449 1.048-2.57 0-2.184-1.344-3.276-4.032-3.276-.681 0-1.591.104-2.73.311l-.925-.591.598-7.347h7.81v1.633h-6.287l-.398 4.727c.824-.15 1.645-.226 2.461-.226 1.655 0 2.958.407 3.907 1.222s1.424 1.93 1.424 3.345c0 1.629-.518 2.906-1.552 3.831-1.035.926-2.462 1.389-4.281 1.389-1.77 0-3.121-.287-4.052-.861zm12.579 0v-1.726c.501.321 1.124.573 1.869.756.745.182 1.479.272 2.202.272 1.261 0 2.24-.296 2.938-.889.699-.593 1.048-1.449 1.048-2.57 0-2.184-1.344-3.276-4.032-3.276-.681 0-1.591.104-2.73.311l-.925-.591.598-7.347h7.81v1.633h-6.287l-.398 4.727c.824-.15 1.645-.226 2.461-.226 1.655 0 2.958.407 3.907 1.222s1.424 1.93 1.424 3.345c0 1.629-.518 2.906-1.552 3.831-1.035.926-2.462 1.389-4.281 1.389-1.77 0-3.121-.287-4.052-.861zm17.306-2.953v-1.567l7.455-10.625h1.891v10.56h2.353v1.633h-2.353v3.598h-1.687v-3.599h-7.659zm1.805-1.632h5.854v-5.221c0-1.024.035-2.181.107-3.47h-.086c-.344.688-.666 1.257-.967 1.708l-4.908 6.983zm10.774 1.632v-1.567l7.455-10.625h1.891v10.56h2.353v1.633h-2.353v3.598h-1.687v-3.599h-7.659zm1.805-1.632h5.854v-5.221c0-1.024.035-2.181.107-3.47h-.086c-.344.688-.666 1.257-.967 1.708l-4.908 6.983zm10.774 1.632v-1.567l7.455-10.625h1.891v10.56h2.353v1.633h-2.353v3.598h-1.687v-3.599h-7.659zm1.805-1.632h5.854v-5.221c0-1.024.035-2.181.107-3.47h-.086c-.344.688-.666 1.257-.967 1.708l-4.908 6.983z" enable-background="new" fill="#333"/><path d="M100.417 6.962c0-1.103.204-2.069.612-2.898.408-.83 1.001-1.469 1.78-1.918.779-.449 1.695-.673 2.75-.673 1.123 0 2.104.205 2.943.615l-.527 1.068c-.811-.381-1.621-.57-2.432-.57-1.176 0-2.105.392-2.786 1.174-.682.783-1.022 1.855-1.022 3.217 0 1.4.328 2.481.985 3.245s1.593 1.146 2.81 1.146c.746 0 1.599-.134 2.556-.402v1.096c-.742.28-1.657.42-2.747.42-1.577 0-2.792-.479-3.644-1.437s-1.278-2.319-1.278-4.083zm8.547 5.372l4.233-10.752h1.047l4.212 10.752h-1.289l-1.333-3.413h-4.292l-1.318 3.413h-1.26zm3.017-4.526h3.464l-1.244-3.317c-.162-.42-.328-.936-.498-1.546-.107.469-.262.984-.462 1.546l-1.26 3.317zm7.947 4.526v-10.708h1.246v9.595h4.724v1.113h-5.97zm7.786 0v-10.708h1.245v9.595h4.725v1.113h-5.97zm11.572-3.809v-6.899h1.245v6.998c0 .895.244 1.582.732 2.061.488.479 1.206.72 2.153.72.903 0 1.599-.241 2.087-.723.488-.482.732-1.173.732-2.072v-6.984h1.246v6.929c0 1.221-.369 2.181-1.106 2.879s-1.751 1.047-3.04 1.047-2.286-.352-2.991-1.055c-.705-.703-1.058-1.67-1.058-2.901zm10.322 3.471v-1.194c.439.187.918.333 1.436.44s1.031.162 1.539.162c.83 0 1.457-.158 1.877-.474.422-.315.633-.755.633-1.317 0-.371-.076-.676-.225-.913-.15-.237-.398-.456-.748-.656s-.883-.428-1.596-.683c-.998-.357-1.709-.78-2.131-1.27-.422-.488-.634-1.127-.634-1.914 0-.826.31-1.483.927-1.973.619-.488 1.436-.732 2.453-.732 1.062 0 2.039.195 2.93.586l-.385 1.084c-.883-.371-1.74-.557-2.574-.557-.66 0-1.176.142-1.549.425-.371.284-.557.678-.557 1.182 0 .371.068.676.205.913s.369.455.693.653c.326.197.824.417 1.494.656 1.125.401 1.896.831 2.312 1.291.418.46.627 1.057.627 1.79 0 .939-.342 1.671-1.023 2.196s-1.605.788-2.775.788c-1.268.001-2.245-.16-2.929-.483zm11.497-9.257v-1.113h8.027v1.113h-3.392v9.595h-1.244v-9.595h-3.391zm8.783 4.219c0-1.745.429-3.099 1.289-4.06.858-.961 2.08-1.441 3.662-1.441 1.537 0 2.738.489 3.604 1.467.863.979 1.296 2.328 1.296 4.049 0 1.712-.434 3.058-1.3 4.037-.867.98-2.072 1.471-3.615 1.471-1.577 0-2.794-.481-3.65-1.444-.859-.965-1.286-2.323-1.286-4.079zm1.318.015c0 1.452.309 2.555.926 3.305.618.751 1.515 1.127 2.691 1.127 1.188 0 2.083-.375 2.688-1.123s.908-1.852.908-3.309c0-1.443-.302-2.537-.904-3.283-.604-.746-1.496-1.119-2.677-1.119-1.188 0-2.089.376-2.707 1.127-.616.749-.925 1.842-.925 3.275zm10.92 5.361v-10.708h3.281c1.664 0 2.959.462 3.881 1.384.924.924 1.385 2.213 1.385 3.867 0 1.769-.479 3.119-1.439 4.055-.959.935-2.34 1.402-4.142 1.402h-2.966zm1.244-1.076h1.517c1.484 0 2.601-.365 3.347-1.096.748-.729 1.121-1.81 1.121-3.24 0-1.396-.351-2.449-1.051-3.157-.701-.708-1.742-1.062-3.124-1.062h-1.81v8.555zm7.918 1.076l4.233-10.752h1.048l4.211 10.752h-1.289l-1.333-3.413h-4.292l-1.318 3.413h-1.26zm3.018-4.526h3.465l-1.246-3.317c-.16-.42-.327-.936-.498-1.546-.107.469-.261.984-.461 1.546l-1.26 3.317zm5.574-6.182h1.362l2.827 5.354 2.85-5.354h1.348l-3.574 6.556v4.152h-1.246v-4.094l-3.567-6.614z" enable-background="new" fill="#666"/></svg>