<svg xmlns="http://www.w3.org/2000/svg" width="80" height="80" viewBox="10 10 80 80" enable-background="new 10 10 80 80"><path d="M30 15h40v10h5v-10c0-2.759-2.236-5-5-5h-40c-2.759 0-5 2.241-5 5v10h5v-10zm55 15h-70c-2.759 0-5 2.241-5 5v25c0 2.764 2.241 5 5 5h10v20c0 2.764 2.241 5 5 5h40c2.764 0 5-2.236 5-5v-20h10c2.764 0 5-2.236 5-5v-25c0-2.759-2.236-5-5-5zm-15 55h-40v-35h40v35zm10-40c-2.764 0-5-2.236-5-5 0-2.759 2.236-5 5-5s5 2.241 5 5c0 2.764-2.236 5-5 5zm-45 10h20v5h-20zm0 10h30v5h-30zm0 10h30v5h-30z"/></svg>