<?xml version="1.0" encoding="utf-8"?>
<!-- Generator: Adobe Illustrator 16.0.4, SVG Export Plug-In . SVG Version: 6.00 Build 0)  -->
<!DOCTYPE svg PUBLIC "-//W3C//DTD SVG 1.1//EN" "http://www.w3.org/Graphics/SVG/1.1/DTD/svg11.dtd">
<svg version="1.1" id="Layer_1" xmlns="http://www.w3.org/2000/svg" xmlns:xlink="http://www.w3.org/1999/xlink" x="0px" y="0px"
	 width="100px" height="100px" viewBox="-34 -34 100 100" enable-background="new -34 -34 100 100" xml:space="preserve">
<g>
	<path d="M-4-19.5h40v10h5v-10c0-2.759-2.236-5-5-5H-4c-2.759,0-5,2.241-5,5v10h5V-19.5z"/>
	<path d="M51-4.5h-70c-2.759,0-5,2.241-5,5v25c0,2.764,2.241,5,5,5h10v20c0,2.764,2.241,5,5,5h40c2.764,0,5-2.236,5-5v-20h10
		c2.764,0,5-2.236,5-5v-25C56-2.259,53.764-4.5,51-4.5z M36,50.5H-4v-35h40V50.5z M46,10.5c-2.764,0-5-2.236-5-5
		c0-2.759,2.236-5,5-5s5,2.241,5,5C51,8.264,48.764,10.5,46,10.5z"/>
	<rect x="1" y="20.5" width="20" height="5"/>
	<rect x="1" y="30.5" width="30" height="5"/>
	<rect x="1" y="40.5" width="30" height="5"/>
</g>
</svg>
