<svg xmlns="http://www.w3.org/2000/svg" width="150" height="150" viewBox="13.709 0 150 150" enable-background="new 13.709 0 150 150"><path fill="#39c" d="M77.332 72.197c-1.243.091-1.719.534-2.791 2.19-7.194 10.975-27.441 42.013-30.678 47.179-2.689 4.293-3.722 7.737-2.859 11.154.73 3.19 3.208 5.419 7.09 6.26.983.101 1.931-.188 2.583-1.007 5.244-6.473 34.64-45.923 40.146-53.319.752-1.005.57-1.419.149-2.272-1.021-2.078-4.852-6.289-7.896-8.266-2.035-1.326-4.023-1.935-5.398-1.935l-.346.016"/><path fill="#39c" d="M55.671 11c.771 20.865 1.761 29.03-.787 36.527-3.507 10.279-14.881 21.065-22.75 29.403-2.708 2.862 8.319 10.597 19.994 1.455 4.23-3.326 10.921-9.874 16.355-14.132 2.455-1.937 5.63-2.838 8.869-2.361 4.489.653 7.567 2.721 10.712 6.489 3.184 3.819 6.195 8.987 10.301 15.702 7.744 12.665 17.458 29.469 26.788 44.277 4.741 7.536 11.061 10.695 19.727 10.489.843-.023.956-.497.69-1.049-6.08-13.023-36.553-76.696-42.938-90.709-4.984-10.936-10.328-25.086-14.153-36.091h-32.808z"/></svg>