<svg xmlns="http://www.w3.org/2000/svg" width="150" height="150" viewBox="-10.976 16.531 150 150" enable-background="new -10.976 16.531 150 150"><g fill="#39c"><path d="M-10.976 27.5h141.958v9.354h-141.958zM57.15 52.137c1.029-1.03 2.096-1.99 3.202-2.889h-71.329v9.354h62.858c1.519-2.282 3.258-4.456 5.269-6.465zM47.85 97.062h-58.826v9.354h64.002c-2.152-2.927-3.886-6.076-5.176-9.354zM45.84 73.147h-56.816v9.363h55.91c-.059-3.137.266-6.275.906-9.363zM29.39 152.47c4.121 4.123 10.817 4.123 14.943 0l25.867-25.867c-5.995-3.853-11.088-8.952-14.947-14.946l-25.863 25.865c-4.128 4.129-4.128 10.823 0 14.948zM96.748 127.378c23.353 0 42.275-18.924 42.275-42.271 0-23.349-18.923-42.277-42.275-42.277-23.339 0-42.27 18.928-42.27 42.277.001 23.347 18.931 42.271 42.27 42.271zm-31.703-42.271c0-17.484 14.221-31.709 31.703-31.709 17.489 0 31.709 14.225 31.709 31.709 0 17.481-14.22 31.702-31.709 31.702-17.482.001-31.703-14.22-31.703-31.702zM96.748 60.447v7.044c9.716 0 17.617 7.902 17.617 17.616h7.046c0-13.596-11.061-24.66-24.663-24.66z"/></g></svg>