<svg version="1.1" id="Layer_1" xmlns="http://www.w3.org/2000/svg" xmlns:xlink="http://www.w3.org/1999/xlink" x="0px" y="0px" width="89.973px" height="30.214px" viewBox="0 0 89.973 30.214" enable-background="new 0 0 89.973 30.214" xml:space="preserve"><path fill="#FCD72A" d="M13.262,11.977c0,0.664-0.543,1.207-1.207,1.207H1.195c-0.664,0-1.207-0.543-1.207-1.207V1.117c0-0.664,0.543-1.206,1.207-1.206h10.859c0.664,0,1.207,0.542,1.207,1.206V11.977z"/><path fill="#000100" d="M5.495,4.062C5.39,4.069,5.35,4.107,5.259,4.247C4.65,5.176,2.937,7.802,2.663,8.239C2.435,8.603,2.348,8.894,2.421,9.183c0.062,0.27,0.271,0.458,0.6,0.529C3.104,9.721,3.184,9.697,3.24,9.628C3.683,9.08,6.171,5.742,6.637,5.116C6.701,5.03,6.685,4.996,6.65,4.923c-0.086-0.176-0.411-0.532-0.669-0.7C5.809,4.112,5.641,4.06,5.524,4.06C5.514,4.06,5.505,4.061,5.495,4.062"/><path fill="#000100" d="M11.183,9.492C10.665,8.38,8.15,3.193,7.606,1.997C7.325,1.38,7.031,0.61,6.769-0.089H3.642C3.688,0.967,3.702,1.5,3.532,2c-0.299,0.877-1.27,1.797-1.941,2.509C1.36,4.752,2.301,5.413,3.296,4.632C3.658,4.349,4.229,3.79,4.692,3.427c0.209-0.166,0.48-0.243,0.757-0.203c0.382,0.056,0.646,0.232,0.914,0.555c0.272,0.325,0.528,0.767,0.879,1.339c0.661,1.081,1.403,2.304,2.199,3.568c0.405,0.644,0.944,0.912,1.684,0.895C11.196,9.579,11.206,9.538,11.183,9.492"/><path fill="#000100" d="M23.383,1.469c0.153-0.235,0.344-0.353,0.575-0.353c0.23,0,0.406,0.067,0.528,0.199c0.124,0.133,0.185,0.287,0.185,0.46s-0.041,0.327-0.123,0.459L20.87,7.37v3.909c0,0.193-0.067,0.358-0.199,0.49c-0.133,0.133-0.296,0.199-0.491,0.199c-0.193,0-0.36-0.066-0.498-0.199c-0.139-0.132-0.207-0.297-0.207-0.49V7.37l-3.663-5.134c-0.083-0.133-0.123-0.286-0.123-0.459s0.062-0.327,0.184-0.46c0.123-0.132,0.299-0.199,0.529-0.199c0.23,0,0.422,0.118,0.575,0.353l3.203,4.659L23.383,1.469z"/><path fill="#000100" d="M25.45,10.129c0.439,0.41,1.052,0.613,1.839,0.613c0.787,0,1.446-0.132,1.978-0.398c0.184-0.093,0.341-0.138,0.475-0.138s0.261,0.056,0.383,0.168c0.122,0.113,0.184,0.24,0.184,0.383c0,0.266-0.11,0.458-0.329,0.575c-0.221,0.117-0.417,0.217-0.591,0.299c-0.175,0.082-0.362,0.153-0.567,0.214c-0.46,0.132-0.991,0.199-1.594,0.199c-1.257,0-2.232-0.353-2.927-1.058c-0.695-0.705-1.042-1.706-1.042-3.004c0-1.123,0.291-2.059,0.873-2.805c0.654-0.837,1.584-1.256,2.79-1.256c1.144,0,2.049,0.389,2.713,1.164c0.623,0.727,0.935,1.625,0.935,2.699c0,0.193-0.065,0.358-0.192,0.49c-0.128,0.133-0.299,0.2-0.513,0.2h-5.196C24.75,9.168,25.011,9.72,25.45,10.129 M26.921,5.102c-0.909,0-1.573,0.403-1.992,1.211c-0.153,0.286-0.24,0.628-0.261,1.026h4.521c-0.041-0.725-0.307-1.297-0.797-1.716C27.984,5.275,27.494,5.102,26.921,5.102"/><path fill="#000100" d="M32.082,0.826c0.132-0.132,0.299-0.199,0.498-0.199c0.199,0,0.365,0.067,0.499,0.199c0.132,0.132,0.199,0.301,0.199,0.506v9.947c0,0.193-0.067,0.358-0.199,0.49c-0.133,0.133-0.299,0.199-0.499,0.199c-0.199,0-0.366-0.066-0.498-0.199c-0.133-0.132-0.2-0.297-0.2-0.49V1.332C31.882,1.126,31.949,0.958,32.082,0.826"/><path fill="#000100" d="M35.073,0.826c0.133-0.132,0.3-0.199,0.499-0.199s0.365,0.067,0.498,0.199c0.132,0.132,0.2,0.301,0.2,0.506v9.947c0,0.193-0.067,0.358-0.2,0.49c-0.133,0.133-0.299,0.199-0.498,0.199s-0.366-0.066-0.499-0.199c-0.132-0.132-0.199-0.297-0.199-0.49V1.332C34.874,1.126,34.94,0.958,35.073,0.826"/><path fill="#000100" d="M1.455,10.513v0.229c0,0.645,0.272,1.255,0.916,1.255h8.48c0.66,0,1.362-0.672,1.362-1.315v-0.169H1.455z"/><g><g><path d="M-0.026,30.036v-14.81h4.26c0.844,0,1.575,0.084,2.192,0.251c0.618,0.167,1.128,0.413,1.533,0.738c0.405,0.324,0.707,0.721,0.906,1.188c0.199,0.467,0.298,0.997,0.298,1.591c0,0.391-0.068,0.767-0.204,1.13s-0.333,0.698-0.592,1.005c-0.258,0.308-0.574,0.574-0.947,0.801c-0.374,0.227-0.801,0.399-1.282,0.518c1.165,0.175,2.062,0.562,2.69,1.162c0.628,0.6,0.941,1.392,0.941,2.376c0,0.628-0.111,1.193-0.335,1.695c-0.224,0.503-0.548,0.929-0.973,1.277c-0.426,0.349-0.949,0.616-1.57,0.801c-0.621,0.185-1.326,0.276-2.114,0.276H-0.026z M1.041,22.155h3.213c0.684,0,1.269-0.087,1.753-0.261c0.485-0.175,0.883-0.405,1.193-0.691c0.31-0.286,0.539-0.61,0.686-0.974c0.146-0.362,0.22-0.735,0.22-1.119c0-0.998-0.316-1.754-0.947-2.268c-0.632-0.512-1.606-0.769-2.925-0.769H1.041V22.155z M1.041,22.94v6.238h3.715c1.305,0,2.289-0.281,2.952-0.843s0.995-1.352,0.995-2.37c0-0.468-0.089-0.888-0.267-1.262c-0.178-0.373-0.434-0.69-0.769-0.952c-0.335-0.262-0.747-0.463-1.235-0.603C5.943,23.01,5.388,22.94,4.768,22.94H1.041z"/><path d="M18.447,29.272c0.711,0,1.348-0.124,1.91-0.371c0.562-0.247,1.038-0.592,1.429-1.031s0.689-0.957,0.896-1.554c0.206-0.597,0.308-1.24,0.308-1.932v-9.158h1.068v9.158c0,0.816-0.129,1.579-0.387,2.287c-0.259,0.708-0.63,1.325-1.115,1.853s-1.074,0.94-1.769,1.24s-1.475,0.45-2.339,0.45c-0.865,0-1.646-0.15-2.339-0.45c-0.694-0.3-1.284-0.713-1.769-1.24s-0.856-1.145-1.115-1.853s-0.387-1.471-0.387-2.287v-9.158h1.078v9.148c0,0.69,0.103,1.334,0.309,1.931c0.206,0.597,0.502,1.114,0.89,1.554c0.387,0.439,0.861,0.785,1.423,1.036C17.098,29.147,17.735,29.272,18.447,29.272z"/><path d="M35.078,17.027c-0.062,0.118-0.153,0.177-0.272,0.177c-0.091,0-0.208-0.063-0.352-0.193c-0.144-0.129-0.338-0.271-0.583-0.429s-0.551-0.302-0.919-0.434c-0.367-0.133-0.82-0.2-1.359-0.2c-0.54,0-1.014,0.077-1.423,0.23c-0.409,0.154-0.752,0.363-1.029,0.629c-0.276,0.265-0.487,0.571-0.63,0.921c-0.144,0.349-0.215,0.715-0.215,1.099c0,0.503,0.107,0.917,0.319,1.245c0.213,0.329,0.495,0.607,0.844,0.838c0.349,0.23,0.746,0.425,1.189,0.581c0.444,0.157,0.9,0.312,1.368,0.466c0.468,0.152,0.924,0.322,1.368,0.507c0.444,0.186,0.84,0.418,1.189,0.696c0.35,0.279,0.631,0.623,0.844,1.031c0.213,0.408,0.32,0.915,0.32,1.522c0,0.622-0.106,1.206-0.319,1.754c-0.213,0.547-0.521,1.023-0.926,1.428c-0.405,0.405-0.9,0.725-1.486,0.958c-0.586,0.234-1.256,0.351-2.009,0.351c-0.977,0-1.818-0.173-2.523-0.519c-0.705-0.345-1.322-0.817-1.853-1.417l0.293-0.461c0.084-0.104,0.182-0.157,0.293-0.157c0.062,0,0.143,0.042,0.241,0.126c0.098,0.083,0.216,0.186,0.356,0.309c0.14,0.122,0.307,0.255,0.502,0.397c0.196,0.144,0.423,0.276,0.682,0.397c0.258,0.122,0.555,0.225,0.891,0.31c0.335,0.083,0.716,0.126,1.143,0.126c0.587,0,1.111-0.09,1.572-0.268c0.461-0.179,0.851-0.42,1.169-0.728c0.318-0.307,0.56-0.672,0.728-1.094c0.167-0.422,0.252-0.873,0.252-1.356c0-0.522-0.107-0.953-0.32-1.292c-0.213-0.338-0.495-0.621-0.844-0.848c-0.35-0.226-0.747-0.417-1.19-0.57c-0.444-0.153-0.899-0.304-1.368-0.45c-0.468-0.146-0.924-0.311-1.368-0.492c-0.444-0.181-0.84-0.413-1.19-0.695c-0.349-0.283-0.63-0.636-0.844-1.058c-0.213-0.422-0.32-0.95-0.32-1.585c0-0.496,0.095-0.974,0.283-1.435c0.189-0.461,0.465-0.866,0.828-1.219c0.364-0.353,0.813-0.635,1.348-0.848c0.534-0.212,1.144-0.319,1.829-0.319c0.769,0,1.458,0.122,2.07,0.367c0.611,0.244,1.168,0.617,1.671,1.119L35.078,17.027z"/><path d="M39.892,30.036h-1.078v-14.81h1.078V30.036z"/><path d="M45.021,15.263c0.056,0.025,0.115,0.079,0.178,0.163l9.588,12.832c-0.021-0.209-0.033-0.412-0.033-0.607V15.226h0.943v14.81h-0.514c-0.16,0-0.289-0.069-0.389-0.209l-9.628-12.853c0.021,0.209,0.032,0.408,0.032,0.597v12.465h-0.932v-14.81h0.523C44.888,15.226,44.965,15.238,45.021,15.263z"/><path d="M68.549,15.226v0.89h-7.797v5.986h6.49v0.869h-6.49v6.176h7.797v0.889h-8.875v-14.81H68.549z"/><path d="M78.795,17.027c-0.062,0.118-0.152,0.177-0.271,0.177c-0.092,0-0.207-0.063-0.352-0.193c-0.145-0.129-0.338-0.271-0.584-0.429c-0.244-0.157-0.551-0.302-0.918-0.434c-0.367-0.133-0.82-0.2-1.359-0.2s-1.014,0.077-1.424,0.23c-0.408,0.154-0.752,0.363-1.029,0.629c-0.275,0.265-0.484,0.571-0.629,0.921c-0.145,0.349-0.215,0.715-0.215,1.099c0,0.503,0.105,0.917,0.318,1.245c0.215,0.329,0.496,0.607,0.844,0.838c0.35,0.23,0.746,0.425,1.191,0.581c0.443,0.157,0.898,0.312,1.367,0.466c0.469,0.152,0.924,0.322,1.367,0.507c0.443,0.186,0.84,0.418,1.189,0.696c0.35,0.279,0.631,0.623,0.844,1.031s0.32,0.915,0.32,1.522c0,0.622-0.107,1.206-0.318,1.754c-0.215,0.547-0.521,1.023-0.926,1.428c-0.406,0.405-0.902,0.725-1.486,0.958c-0.588,0.234-1.256,0.351-2.012,0.351c-0.977,0-1.816-0.173-2.521-0.519c-0.705-0.345-1.322-0.817-1.854-1.417l0.295-0.461c0.082-0.104,0.18-0.157,0.291-0.157c0.064,0,0.145,0.042,0.242,0.126c0.098,0.083,0.217,0.186,0.355,0.309c0.141,0.122,0.309,0.255,0.504,0.397c0.195,0.144,0.422,0.276,0.682,0.397c0.258,0.122,0.555,0.225,0.891,0.31c0.336,0.083,0.717,0.126,1.143,0.126c0.588,0,1.111-0.09,1.572-0.268c0.461-0.179,0.852-0.42,1.168-0.728c0.318-0.307,0.561-0.672,0.729-1.094s0.252-0.873,0.252-1.356c0-0.522-0.107-0.953-0.32-1.292c-0.213-0.338-0.494-0.621-0.844-0.848c-0.35-0.226-0.746-0.417-1.189-0.57s-0.9-0.304-1.367-0.45c-0.469-0.146-0.924-0.311-1.369-0.492c-0.443-0.181-0.838-0.413-1.189-0.695c-0.35-0.283-0.631-0.636-0.844-1.058s-0.318-0.95-0.318-1.585c0-0.496,0.094-0.974,0.283-1.435c0.188-0.461,0.465-0.866,0.826-1.219c0.365-0.353,0.814-0.635,1.348-0.848c0.535-0.212,1.145-0.319,1.83-0.319c0.768,0,1.457,0.122,2.068,0.367c0.611,0.244,1.17,0.617,1.672,1.119L78.795,17.027z"/><path d="M89.314,17.027c-0.062,0.118-0.154,0.177-0.271,0.177c-0.092,0-0.209-0.063-0.354-0.193c-0.143-0.129-0.336-0.271-0.582-0.429c-0.244-0.157-0.551-0.302-0.918-0.434c-0.367-0.133-0.822-0.2-1.359-0.2c-0.539,0-1.014,0.077-1.424,0.23c-0.41,0.154-0.752,0.363-1.029,0.629c-0.275,0.265-0.486,0.571-0.629,0.921c-0.145,0.349-0.217,0.715-0.217,1.099c0,0.503,0.107,0.917,0.32,1.245c0.213,0.329,0.494,0.607,0.844,0.838s0.746,0.425,1.189,0.581c0.445,0.157,0.9,0.312,1.369,0.466c0.467,0.152,0.922,0.322,1.367,0.507c0.443,0.186,0.84,0.418,1.189,0.696c0.35,0.279,0.631,0.623,0.844,1.031s0.318,0.915,0.318,1.522c0,0.622-0.105,1.206-0.318,1.754c-0.213,0.547-0.521,1.023-0.926,1.428c-0.404,0.405-0.9,0.725-1.486,0.958c-0.586,0.234-1.256,0.351-2.01,0.351c-0.977,0-1.818-0.173-2.521-0.519c-0.705-0.345-1.322-0.817-1.854-1.417l0.293-0.461c0.084-0.104,0.182-0.157,0.293-0.157c0.064,0,0.143,0.042,0.24,0.126c0.1,0.083,0.219,0.186,0.357,0.309c0.141,0.122,0.309,0.255,0.504,0.397c0.195,0.144,0.422,0.276,0.68,0.397c0.26,0.122,0.557,0.225,0.893,0.31c0.334,0.083,0.715,0.126,1.143,0.126c0.586,0,1.109-0.09,1.572-0.268c0.459-0.179,0.85-0.42,1.168-0.728c0.318-0.307,0.561-0.672,0.729-1.094s0.25-0.873,0.25-1.356c0-0.522-0.105-0.953-0.318-1.292c-0.213-0.338-0.494-0.621-0.844-0.848c-0.35-0.226-0.746-0.417-1.189-0.57s-0.9-0.304-1.367-0.45c-0.469-0.146-0.926-0.311-1.369-0.492c-0.443-0.181-0.84-0.413-1.189-0.695c-0.35-0.283-0.631-0.636-0.844-1.058s-0.32-0.95-0.32-1.585c0-0.496,0.096-0.974,0.283-1.435c0.189-0.461,0.465-0.866,0.828-1.219s0.812-0.635,1.348-0.848c0.535-0.212,1.143-0.319,1.828-0.319c0.77,0,1.459,0.122,2.07,0.367c0.611,0.244,1.168,0.617,1.672,1.119L89.314,17.027z"/></g></g></svg>