<svg xmlns="http://www.w3.org/2000/svg" width="219.982" height="80.478" viewBox="0 0 219.982 80.478"><path d="M141.848 9.451c.93-1.429 2.093-2.142 3.488-2.142 1.394 0 2.461.405 3.203 1.208.747.806 1.118 1.738 1.118 2.791s-.247 1.981-.743 2.788l-22.306 31.132v23.697c0 1.176-.405 2.172-1.208 2.973-.804.809-1.798 1.206-2.976 1.206-1.174 0-2.185-.397-3.018-1.206-.838-.801-1.255-1.797-1.255-2.973v-23.697l-22.21-31.132c-.5-.807-.744-1.735-.744-2.788 0-1.053.372-1.985 1.113-2.791.746-.803 1.813-1.208 3.208-1.208 1.393 0 2.557.713 3.482 2.142l19.423 28.247 19.425-28.247zM154.383 61.956c2.661 2.481 6.378 3.715 11.149 3.715 4.77 0 8.769-.802 11.991-2.415 1.115-.559 2.073-.835 2.88-.835.806 0 1.579.34 2.322 1.022.742.682 1.115 1.457 1.115 2.321 0 1.614-.669 2.776-1.993 3.486-1.338.712-2.529 1.318-3.582 1.812-1.059.496-2.197.93-3.436 1.303-2.791.8-6.012 1.207-9.668 1.207-7.622 0-13.537-2.138-17.748-6.413-4.216-4.273-6.319-10.345-6.319-18.217 0-6.812 1.767-12.482 5.293-17.003 3.969-5.081 9.607-7.621 16.915-7.621 6.938 0 12.424 2.356 16.453 7.06 3.776 4.404 5.668 9.852 5.668 16.362 0 1.174-.392 2.167-1.165 2.968-.775.809-1.814 1.213-3.112 1.213h-31.505c.497 4.21 2.078 7.557 4.742 10.035m8.92-30.484c-5.515 0-9.54 2.447-12.08 7.343-.931 1.735-1.455 3.809-1.581 6.227h27.414c-.246-4.398-1.856-7.867-4.831-10.41-2.481-2.105-5.45-3.16-8.922-3.16M194.588 5.545c.804-.804 1.814-1.207 3.021-1.207 1.208 0 2.212.403 3.021 1.207.805.806 1.212 1.828 1.212 3.069v60.311c0 1.177-.407 2.172-1.212 2.974-.809.808-1.812 1.206-3.021 1.206-1.206 0-2.217-.398-3.021-1.206-.803-.802-1.209-1.797-1.209-2.974v-60.311c0-1.241.406-2.263 1.209-3.069M212.73 5.545c.809-.804 1.813-1.207 3.024-1.207 1.207 0 2.213.403 3.019 1.207.805.806 1.21 1.828 1.21 3.069v60.311c0 1.177-.405 2.172-1.21 2.974-.806.808-1.812 1.206-3.019 1.206-1.211 0-2.216-.398-3.024-1.206-.802-.802-1.21-1.797-1.21-2.974v-60.311c0-1.241.408-2.263 1.21-3.069"/><path fill="#FED900" d="M80.479 73.162c0 4.023-3.293 7.316-7.315 7.316h-65.849c-4.024 0-7.315-3.293-7.315-7.316v-65.846c0-4.025 3.291-7.316 7.315-7.316h65.849c4.022 0 7.315 3.291 7.315 7.316v65.846z"/><path d="M33.387 25.167c-.636.048-.88.276-1.433 1.123-3.689 5.633-14.079 21.56-15.74 24.207-1.379 2.203-1.908 3.971-1.466 5.723.376 1.637 1.645 2.781 3.638 3.215.505.051.989-.098 1.324-.518 2.691-3.321 17.774-23.563 20.601-27.357.386-.516.291-.73.076-1.168-.521-1.064-2.489-3.226-4.052-4.242-1.044-.678-2.065-.992-2.77-.992l-.178.009M67.875 58.091c-3.145-6.736-18.39-38.191-21.688-45.438-1.705-3.74-3.489-8.413-5.075-12.653h-18.964c.278 6.403.365 9.638-.664 12.665-1.814 5.32-7.698 10.898-11.768 15.211-1.403 1.481 4.302 5.483 10.341.753 2.189-1.72 5.651-5.108 8.462-7.308 1.271-1.003 2.913-1.472 4.587-1.224 2.322.337 3.914 1.408 5.54 3.357 1.65 1.975 3.207 4.651 5.331 8.122 4.006 6.554 8.509 13.969 13.335 21.631 2.454 3.9 5.726 5.532 10.207 5.425.435-.011.496-.256.356-.541"/><path d="M7.269 65.731l.002-.029c.028 3.9 3.268 7.029 7.167 7.029h51.424c4 0 6.234-3.062 6.234-6.962v-.038h-64.827z"/><path fill="none" d="M0 0h841.891v595.275h-841.891z"/></svg>