<svg version="1.1" id="Layer_1" xmlns="http://www.w3.org/2000/svg" xmlns:xlink="http://www.w3.org/1999/xlink" x="0px" y="0px" width="219.983px" height="80.478px" viewBox="0 0 219.983 80.478" enable-background="new 0 0 219.983 80.478" xml:space="preserve"><path d="M141.848,9.451c0.93-1.429,2.093-2.142,3.488-2.142c1.394,0,2.461,0.405,3.203,1.208c0.747,0.806,1.118,1.738,1.118,2.791c0,1.053-0.247,1.981-0.743,2.788l-22.305,31.132v23.697c0,1.176-0.406,2.172-1.208,2.973c-0.804,0.809-1.798,1.206-2.976,1.206c-1.174,0-2.185-0.397-3.018-1.206c-0.837-0.801-1.254-1.797-1.254-2.973V45.228l-22.21-31.132c-0.5-0.807-0.745-1.735-0.745-2.788c0-1.053,0.373-1.985,1.114-2.791c0.746-0.803,1.813-1.208,3.208-1.208c1.392,0,2.556,0.713,3.482,2.142l19.423,28.247L141.848,9.451z"/><path d="M154.383,61.956c2.661,2.481,6.378,3.715,11.149,3.715c4.77,0,8.769-0.802,11.992-2.415c1.115-0.559,2.073-0.835,2.88-0.835c0.805,0,1.579,0.34,2.322,1.022c0.742,0.682,1.115,1.457,1.115,2.321c0,1.614-0.669,2.776-1.993,3.486c-1.338,0.712-2.529,1.318-3.582,1.812c-1.059,0.496-2.197,0.93-3.436,1.303c-2.791,0.8-6.011,1.207-9.668,1.207c-7.622,0-13.537-2.138-17.748-6.413c-4.216-4.273-6.319-10.345-6.319-18.217c0-6.812,1.767-12.482,5.293-17.003c3.969-5.081,9.607-7.621,16.915-7.621c6.938,0,12.424,2.356,16.453,7.06c3.776,4.404,5.668,9.852,5.668,16.362c0,1.174-0.392,2.167-1.165,2.968c-0.775,0.809-1.814,1.213-3.112,1.213h-31.505C150.138,56.131,151.719,59.478,154.383,61.956 M163.303,31.472c-5.515,0-9.54,2.447-12.08,7.343c-0.931,1.735-1.455,3.809-1.581,6.227h27.414c-0.246-4.398-1.857-7.867-4.831-10.41C169.744,32.527,166.775,31.472,163.303,31.472"/><path d="M194.588,5.545c0.804-0.804,1.815-1.207,3.021-1.207c1.208,0,2.212,0.403,3.02,1.207c0.805,0.806,1.212,1.828,1.212,3.069v60.311c0,1.177-0.407,2.172-1.212,2.974c-0.808,0.808-1.812,1.206-3.02,1.206c-1.206,0-2.217-0.398-3.021-1.206c-0.803-0.802-1.209-1.797-1.209-2.974V8.614C193.379,7.373,193.785,6.351,194.588,5.545"/><path d="M212.73,5.545c0.808-0.804,1.813-1.207,3.024-1.207c1.207,0,2.213,0.403,3.019,1.207c0.804,0.806,1.21,1.828,1.21,3.069v60.311c0,1.177-0.406,2.172-1.21,2.974c-0.806,0.808-1.812,1.206-3.019,1.206c-1.211,0-2.216-0.398-3.024-1.206c-0.802-0.802-1.21-1.797-1.21-2.974V8.614C211.52,7.373,211.928,6.351,212.73,5.545"/><path fill="#FED900" d="M80.479,73.162c0,4.023-3.293,7.316-7.316,7.316H7.315C3.291,80.478,0,77.185,0,73.162V7.316C0,3.291,3.291,0,7.315,0h65.848c4.023,0,7.316,3.291,7.316,7.316V73.162z"/><path d="M33.387,25.167c-0.636,0.048-0.88,0.276-1.433,1.123c-3.689,5.633-14.079,21.56-15.74,24.207c-1.379,2.203-1.908,3.971-1.466,5.723c0.376,1.637,1.645,2.781,3.638,3.215c0.505,0.051,0.989-0.098,1.324-0.518c2.692-3.321,17.775-23.563,20.601-27.357c0.386-0.516,0.291-0.73,0.076-1.168c-0.522-1.064-2.489-3.226-4.052-4.242c-1.044-0.678-2.065-0.992-2.769-0.992C33.503,25.158,33.444,25.162,33.387,25.167"/><path d="M67.875,58.091C64.731,51.355,49.486,19.9,46.188,12.653C44.482,8.913,42.698,4.24,41.112,0H22.148c0.278,6.403,0.365,9.638-0.664,12.665c-1.815,5.32-7.699,10.898-11.768,15.211c-1.403,1.481,4.302,5.483,10.341,0.753c2.189-1.72,5.651-5.108,8.462-7.308c1.27-1.003,2.913-1.472,4.587-1.224c2.322,0.337,3.914,1.408,5.54,3.357c1.65,1.975,3.207,4.651,5.331,8.122c4.006,6.554,8.509,13.969,13.335,21.631c2.454,3.9,5.725,5.532,10.207,5.425C67.954,58.621,68.015,58.376,67.875,58.091"/><path d="M7.269,65.731l0.002-0.029c0.028,3.9,3.267,7.029,7.167,7.029h51.424c4,0,6.234-3.062,6.234-6.962v-0.038H7.269z"/><rect fill="none" width="841.891" height="595.275"/></svg>