<svg xmlns="http://www.w3.org/2000/svg" width="108" height="37" viewBox="-180.784 -116.39 108 37" enable-background="new -180.784 -116.39 108 37"><path fill="#FCD72A" d="M-164.838-101.275c0 .797-.651 1.449-1.449 1.449h-13.033c-.797 0-1.448-.652-1.448-1.449v-13.032c0-.797.651-1.447 1.448-1.447h13.032c.797 0 1.448.65 1.448 1.447v13.032h.002z"/><path fill="#000100" d="M-174.158-110.773c-.126.008-.175.054-.284.222-.731 1.115-2.787 4.266-3.115 4.791-.274.437-.378.786-.29 1.133.074.324.324.549.719.634.1.011.196-.018.264-.101.531-.658 3.517-4.663 4.076-5.414.077-.103.057-.145.015-.232-.104-.211-.494-.638-.803-.839-.206-.134-.408-.196-.549-.196l-.033.002m6.825 6.516c-.621-1.334-3.64-7.56-4.292-8.994-.336-.741-.69-1.665-1.005-2.503h-3.752c.055 1.267.072 1.907-.131 2.506-.36 1.053-1.524 2.157-2.33 3.011-.278.292.852 1.085 2.046.148.435-.339 1.119-1.01 1.675-1.446.251-.199.576-.291.909-.243.458.067.775.278 1.096.666.327.39.634.92 1.056 1.607.792 1.297 1.683 2.764 2.638 4.281.486.773 1.133 1.095 2.021 1.074.084-.002.097-.052.069-.107M-152.693-113.885c.184-.282.413-.423.69-.423.275 0 .486.08.633.238.149.16.223.345.223.552 0 .208-.049.392-.148.55l-4.414 6.164v4.69c0 .232-.081.43-.239.588-.159.16-.355.239-.589.239-.232 0-.433-.079-.598-.239-.167-.158-.249-.356-.249-.588v-4.69l-4.396-6.162c-.1-.159-.148-.343-.148-.55 0-.208.075-.392.222-.552.147-.158.358-.238.634-.238.277 0 .508.141.69.423l3.844 5.59 3.845-5.592zm2.482 10.392c.526.492 1.262.737 2.206.737s1.735-.159 2.374-.479c.222-.111.409-.166.571-.166.161 0 .312.067.459.202.146.135.22.288.22.459 0 .319-.131.549-.395.69-.265.141-.5.26-.709.358-.21.099-.435.184-.681.257-.552.159-1.189.239-1.913.239-1.508 0-2.678-.424-3.512-1.27-.834-.846-1.25-2.047-1.25-3.605 0-1.347.349-2.471 1.048-3.366.785-1.004 1.901-1.508 3.348-1.508 1.372 0 2.458.468 3.256 1.397.748.872 1.121 1.95 1.121 3.239 0 .231-.077.429-.229.587-.154.16-.358.24-.615.24h-6.236c.096.836.409 1.498.937 1.989m1.764-6.032c-1.091 0-1.888.483-2.391 1.453-.184.343-.288.753-.312 1.231h5.425c-.05-.87-.368-1.557-.957-2.059-.49-.417-1.077-.625-1.765-.625m6.194-5.131c.158-.159.359-.239.598-.239.238 0 .437.081.599.239.158.158.237.361.237.607v11.937c0 .232-.079.43-.237.588-.161.16-.36.239-.599.239s-.439-.079-.598-.239c-.159-.158-.24-.356-.24-.588v-11.937c0-.248.081-.449.24-.607m3.59 0c.159-.159.359-.239.598-.239s.438.081.598.239c.159.158.24.361.24.607v11.937c0 .232-.079.43-.24.588-.159.16-.359.239-.598.239-.238 0-.438-.079-.598-.239-.16-.158-.239-.356-.239-.588v-11.937c-.001-.248.078-.449.239-.607"/><path fill="#000100" d="M-179.007-103.032v.275c0 .774.326 1.505 1.099 1.505h10.176c.792 0 1.635-.806 1.635-1.578v-.203h-12.91z"/><path d="M-180.784-79.603v-17.773h5.112c1.014 0 1.891.101 2.631.301.742.2 1.354.496 1.84.885.485.389.848.866 1.087 1.426.237.562.357 1.197.357 1.909 0 .469-.083.921-.245 1.357-.163.435-.4.836-.71 1.205-.311.37-.689.688-1.137.962-.449.273-.961.479-1.539.622 1.398.209 2.475.673 3.229 1.394.754.721 1.128 1.67 1.128 2.851 0 .755-.132 1.432-.402 2.035-.269.604-.657 1.115-1.167 1.533-.511.418-1.139.738-1.884.961-.746.222-1.592.331-2.538.331h-5.763v.001zm1.28-9.457h3.856c.82 0 1.522-.105 2.104-.314.582-.211 1.059-.485 1.432-.83.371-.342.646-.731.823-1.168.176-.435.264-.883.264-1.343 0-1.198-.379-2.105-1.136-2.722-.759-.614-1.928-.921-3.511-.921h-3.831v7.298zm0 .941v7.485h4.458c1.565 0 2.747-.336 3.543-1.01.796-.675 1.194-1.623 1.194-2.846 0-.56-.108-1.064-.321-1.514-.213-.448-.52-.827-.922-1.142-.402-.314-.896-.555-1.482-.724-.587-.167-1.253-.25-1.997-.25h-4.473zm20.888 7.599c.854 0 1.619-.149 2.292-.446.675-.296 1.246-.71 1.716-1.236.469-.527.826-1.148 1.075-1.866.248-.717.371-1.488.371-2.318v-10.99h1.281v10.99c0 .98-.155 1.894-.464 2.745-.311.849-.756 1.589-1.338 2.223-.583.634-1.289 1.128-2.122 1.488-.834.36-1.771.54-2.807.54-1.039 0-1.976-.18-2.808-.54s-1.54-.856-2.123-1.488c-.583-.631-1.027-1.375-1.338-2.223-.31-.851-.464-1.765-.464-2.745v-10.99h1.294v10.979c0 .828.123 1.601.37 2.317.248.716.603 1.337 1.069 1.865.464.527 1.033.942 1.708 1.243.669.302 1.433.452 2.288.452zm19.958-14.695c-.075.142-.184.213-.327.213-.109 0-.25-.076-.422-.231-.173-.155-.406-.326-.7-.516-.294-.19-.662-.361-1.103-.521s-.984-.239-1.632-.239c-.648 0-1.216.092-1.707.274-.491.185-.902.436-1.235.756-.33.317-.585.686-.756 1.105-.172.42-.258.858-.258 1.32 0 .602.127 1.099.383 1.493.255.395.593.729 1.013 1.005.418.277.895.511 1.426.699.534.188 1.081.373 1.642.558.562.183 1.108.387 1.642.609.534.223 1.008.502 1.426.835.421.335.758.747 1.014 1.237.256.49.383 1.099.383 1.827 0 .747-.126 1.448-.382 2.104-.255.657-.626 1.228-1.111 1.714-.486.486-1.08.871-1.783 1.15-.703.281-1.507.422-2.411.422-1.173 0-2.182-.209-3.029-.624-.846-.415-1.586-.979-2.223-1.7l.352-.553c.101-.125.218-.189.352-.189.074 0 .171.05.288.151l.428.372c.168.145.368.304.603.476.235.174.507.331.818.476.311.147.667.271 1.07.373.402.1.859.152 1.371.152.705 0 1.334-.108 1.887-.323.553-.213 1.021-.503 1.402-.873.382-.368.672-.806.875-1.313.2-.507.302-1.047.302-1.627 0-.625-.128-1.144-.384-1.549-.255-.405-.594-.746-1.012-1.018-.421-.271-.896-.501-1.429-.683-.534-.186-1.079-.366-1.642-.542-.562-.175-1.108-.373-1.642-.591-.532-.215-1.008-.495-1.428-.833-.419-.339-.756-.763-1.012-1.27-.257-.506-.384-1.14-.384-1.903 0-.595.113-1.168.339-1.721s.558-1.04.994-1.463c.436-.423.975-.762 1.617-1.018.641-.254 1.373-.383 2.195-.383.922 0 1.75.147 2.484.44.733.293 1.402.741 2.005 1.343l-.299.579zm5.777 15.612h-1.294v-17.773h1.294v17.773zm6.155-17.729c.068.03.138.095.214.195l11.506 15.398c-.026-.251-.04-.494-.04-.728v-14.91h1.131v17.773h-.617c-.192 0-.347-.084-.467-.25l-11.553-15.425c.024.251.039.49.039.716v14.959h-1.12v-17.773h.628c.12.001.212.015.279.045zm28.234-.044v1.069h-9.356v7.183h7.789v1.043h-7.789v7.411h9.356v1.067h-10.65v-17.773h10.65zm12.296 2.161c-.075.142-.183.213-.326.213-.11 0-.249-.076-.422-.231-.175-.155-.406-.326-.701-.516-.293-.188-.661-.361-1.102-.521-.441-.159-.984-.239-1.631-.239s-1.216.092-1.708.274c-.49.185-.903.436-1.235.756-.33.317-.58.686-.755 1.105-.173.42-.258.858-.258 1.32 0 .602.127 1.099.382 1.493.257.395.595.729 1.013 1.005.419.277.895.511 1.429.699.531.188 1.077.373 1.64.558.564.183 1.11.387 1.641.609.532.223 1.007.502 1.427.835.42.335.757.747 1.013 1.237.255.49.384 1.099.384 1.827 0 .747-.129 1.448-.382 2.104-.258.657-.625 1.228-1.111 1.714-.487.486-1.083.871-1.784 1.15-.706.281-1.507.422-2.414.422-1.173 0-2.18-.209-3.026-.624-.846-.415-1.586-.979-2.225-1.7l.354-.553c.099-.125.216-.189.349-.189.076 0 .173.05.291.151l.425.372c.17.145.371.304.604.476.234.174.506.331.819.476.31.147.666.271 1.069.373.403.1.86.152 1.371.152.707 0 1.333-.108 1.887-.323.553-.213 1.023-.503 1.402-.873.382-.368.673-.806.875-1.313.202-.507.303-1.047.303-1.627 0-.625-.129-1.144-.384-1.549-.256-.405-.593-.746-1.013-1.018-.42-.271-.895-.501-1.427-.683-.53-.186-1.079-.366-1.639-.542-.563-.175-1.11-.373-1.643-.591-.532-.215-1.006-.495-1.428-.833-.419-.339-.757-.763-1.012-1.27-.256-.506-.382-1.14-.382-1.903 0-.595.112-1.168.339-1.721.226-.553.558-1.04.992-1.463.438-.423.976-.762 1.617-1.018.642-.254 1.375-.383 2.196-.383.922 0 1.749.147 2.482.44.732.293 1.404.741 2.006 1.343l-.302.579zm12.623 0c-.074.142-.184.213-.325.213-.11 0-.25-.076-.425-.231-.171-.155-.403-.326-.699-.516-.293-.188-.661-.361-1.102-.521-.44-.159-.986-.239-1.63-.239-.647 0-1.218.092-1.71.274-.491.185-.902.436-1.234.756-.331.317-.584.686-.755 1.105-.175.42-.261.858-.261 1.32 0 .602.129 1.099.384 1.493.256.395.593.729 1.013 1.005.421.278.896.511 1.427.699.535.188 1.081.373 1.644.558.56.183 1.106.387 1.641.609.531.223 1.008.502 1.426.835.42.335.757.747 1.013 1.237.256.49.382 1.099.382 1.827 0 .747-.125 1.448-.382 2.104-.256.657-.625 1.228-1.111 1.714-.484.486-1.079.871-1.782 1.15-.705.281-1.508.422-2.413.422-1.172 0-2.181-.209-3.024-.624-.846-.415-1.587-.979-2.226-1.7l.351-.553c.102-.125.219-.189.352-.189.078 0 .173.05.289.151l.429.372c.168.145.37.304.604.476.233.174.506.331.816.476.312.147.668.271 1.072.373.401.1.857.152 1.371.152.703 0 1.331-.108 1.887-.323.551-.213 1.019-.503 1.401-.873.381-.368.673-.806.875-1.313.201-.507.3-1.047.3-1.627 0-.625-.125-1.144-.381-1.549-.257-.405-.593-.746-1.014-1.018-.419-.271-.896-.501-1.426-.683-.532-.186-1.08-.366-1.641-.542-.562-.175-1.111-.373-1.643-.591-.532-.215-1.008-.495-1.426-.833-.421-.339-.758-.763-1.014-1.27-.255-.506-.383-1.14-.383-1.903 0-.595.114-1.168.338-1.721.228-.553.559-1.04.994-1.463.436-.423.975-.762 1.619-1.018.642-.254 1.371-.383 2.194-.383.923 0 1.75.147 2.483.44.733.293 1.401.741 2.006 1.343l-.304.579z"/></svg>