<?xml version="1.0" encoding="utf-8"?>
<!-- Generator: Adobe Illustrator 16.0.0, SVG Export Plug-In . SVG Version: 6.00 Build 0)  -->
<!DOCTYPE svg PUBLIC "-//W3C//DTD SVG 1.1//EN" "http://www.w3.org/Graphics/SVG/1.1/DTD/svg11.dtd">
<svg version="1.1" id="Layer_1" xmlns="http://www.w3.org/2000/svg" xmlns:xlink="http://www.w3.org/1999/xlink" x="0px" y="0px"
	 width="80.479px" height="80.478px" viewBox="0 0 80.479 80.478" enable-background="new 0 0 80.479 80.478" xml:space="preserve">
<path fill="#FED900" d="M80.479,73.162c0,4.023-3.293,7.316-7.316,7.316H7.315C3.293,80.478,0,77.185,0,73.162V7.316
	C0,3.291,3.293,0,7.315,0h65.848c4.023,0,7.316,3.291,7.316,7.316V73.162z"/>
<path d="M33.388,25.167c-0.636,0.048-0.88,0.276-1.432,1.123c-3.69,5.633-14.079,21.56-15.741,24.207
	c-1.379,2.203-1.908,3.971-1.466,5.723c0.376,1.637,1.646,2.781,3.638,3.215c0.505,0.051,0.99-0.098,1.325-0.518
	c2.691-3.321,17.774-23.563,20.6-27.357c0.386-0.516,0.291-0.73,0.077-1.168c-0.523-1.064-2.49-3.226-4.053-4.242
	c-1.044-0.678-2.064-0.992-2.77-0.992C33.505,25.158,33.444,25.162,33.388,25.167"/>
<path d="M67.875,58.091C64.732,51.355,49.488,19.9,46.188,12.653C44.483,8.913,42.699,4.24,41.113,0H22.15
	c0.277,6.403,0.363,9.638-0.664,12.665c-1.816,5.32-7.699,10.898-11.77,15.211c-1.402,1.481,4.302,5.483,10.341,0.753
	c2.19-1.72,5.651-5.108,8.462-7.308c1.271-1.003,2.913-1.472,4.589-1.224c2.321,0.337,3.913,1.408,5.54,3.357
	c1.648,1.975,3.205,4.651,5.33,8.122c4.007,6.554,8.51,13.969,13.334,21.631c2.455,3.9,5.727,5.532,10.207,5.425
	C67.954,58.621,68.015,58.376,67.875,58.091"/>
<path d="M7.27,65.731l0.002-0.029c0.028,3.9,3.268,7.029,7.168,7.029h51.424c3.999,0,6.949-3.062,6.949-6.962v-0.038H7.27z"/>
<rect fill="none" width="841.891" height="595.275"/>
</svg>
